<svg width="72" height="67" viewBox="0 0 72 67" fill="none" xmlns="http://www.w3.org/2000/svg">
<path d="M61.7677 26.5675C60.7767 26.0042 59.5181 26.3537 58.9565 27.3481C58.3951 28.3425 58.7434 29.6053 59.7345 30.1687C64.4687 32.8597 67.076 36.1092 67.076 39.3188C67.076 46.6562 55.1726 51.1792 47.9668 52.6425C46.8503 52.8693 46.1285 53.9611 46.3544 55.0814C46.5806 56.2022 47.6697 56.926 48.7851 56.6991C58.4161 54.7434 71.201 49.1621 71.201 39.3188C71.201 34.5537 67.8508 30.0253 61.7677 26.5675Z" fill="#FF2359"/>
<path d="M25.6883 57.1446V64.1518C25.6883 64.915 26.107 65.6163 26.7775 65.9764C27.4466 66.3356 28.2603 66.2979 28.8948 65.8737L41.2698 57.596C41.8436 57.2122 42.1883 56.566 42.1883 55.8741C42.1883 55.1822 41.8436 54.536 41.2698 54.1522L28.8948 45.8745C28.2619 45.4511 27.4481 45.4116 26.7775 45.7719C26.107 46.1319 25.6883 46.8332 25.6883 47.5964V52.9506C17.9895 51.6316 4.92578 47.1122 4.92578 39.3187C4.92578 36.1092 7.53305 32.8596 12.2675 30.1687C13.2586 29.6054 13.6068 28.3425 13.0454 27.348C12.484 26.3536 11.2253 26.0043 10.2342 26.5675C4.15097 30.0252 0.800781 34.5536 0.800781 39.3187C0.800781 49.9111 15.308 55.4877 25.6883 57.1446ZM29.8133 51.4632L36.4075 55.8741L29.8133 60.285V51.4632Z" fill="#FF2359"/>
<path d="M17.438 31.0411C17.438 31.825 17.8794 32.5415 18.5781 32.8922L35.0781 41.1698C35.3629 41.314 35.6948 41.3879 35.9999 41.3882H36.001C36.3077 41.3879 36.6234 41.3185 36.9228 41.1698L53.4228 32.8922C54.1216 32.5415 54.563 31.825 54.563 31.0411V10.3471C54.563 9.56387 54.1149 8.83889 53.4228 8.49606L36.9228 0.218426C36.3422 -0.0728087 35.6588 -0.0728087 35.0781 0.218426L18.5781 8.49606C17.8776 8.84758 17.438 9.57091 17.438 10.3471V31.0411ZM21.563 13.6955L33.938 19.9037V35.9705L21.563 29.7623V13.6955ZM50.438 29.7621L38.063 35.9703V19.9037L50.438 13.6955V29.7621ZM36.0005 4.38318L47.8886 10.3471L36.0005 16.311L24.1124 10.3471L36.0005 4.38318Z" fill="#FF2359"/>
</svg>
