<svg width="73" height="69" viewBox="0 0 73 69" fill="none" xmlns="http://www.w3.org/2000/svg">
<path d="M19.7904 43.8799C20.4688 43.4874 20.701 42.6161 20.3097 41.9356C19.9179 41.2556 19.05 41.0221 18.3717 41.4147C17.6933 41.8077 17.4606 42.679 17.8524 43.3589C18.2437 44.0395 19.1121 44.273 19.7904 43.8799Z" fill="#FF2359"/>
<path d="M13.9758 53.705L21.1208 66.1229C22.6627 68.8054 26.131 69.7986 28.8738 68.2076C31.5879 66.6339 32.5206 63.1545 30.9505 60.4291L26.6941 53.031L30.3802 50.8957C31.0586 50.502 31.2914 49.6317 30.8995 48.951L29.0545 45.7447C29.2745 45.7018 30.7211 45.4171 56.2303 40.3963C59.3838 40.2244 61.2732 36.7639 59.6803 33.9974L54.965 25.803L57.9783 21.2236C58.2743 20.7732 58.292 20.1943 58.0232 19.7272L55.1856 14.7959C54.9168 14.3287 54.4063 14.0552 53.8715 14.0869L48.413 14.4155L43.1783 5.31798C42.4202 4.00006 41.0618 3.20208 39.5454 3.18317C39.5271 3.18262 39.5094 3.18262 39.4911 3.18262C38.0257 3.18262 36.6956 3.91442 35.9075 5.15171L17.3732 28.842L5.32379 35.8219C0.584631 38.5662 -1.05698 44.6664 1.68864 49.4343C4.19706 53.794 9.48545 55.5089 13.9758 53.705ZM28.4936 61.8533C29.2773 63.2135 28.8134 64.954 27.4539 65.742C26.09 66.5333 24.353 66.0473 23.5782 64.6999L16.4842 52.3698L21.399 49.5227C29.6093 63.7929 28.3617 61.6247 28.4936 61.8533ZM25.2753 50.5648L23.8565 48.0991L26.3139 46.6755L27.7327 49.1412L25.2753 50.5648ZM53.1665 16.9813L55.1274 20.3889L53.3788 23.0459L49.9991 17.172L53.1665 16.9813ZM38.2807 6.71263C38.6614 6.0876 39.2655 6.02309 39.5105 6.02976C39.7527 6.03254 40.3562 6.10817 40.7203 6.74099L57.2229 35.421C57.7605 36.3546 57.1071 37.5285 56.0291 37.5552C55.8357 37.5597 55.7464 37.5947 55.251 37.6876L37.7946 7.35046C38.1609 6.87779 38.2081 6.83219 38.2807 6.71263ZM35.9064 9.76386L52.3075 38.267L27.5548 43.1383L20.0284 30.0587L35.9064 9.76386ZM4.14607 48.0107C3.52312 46.9291 3.19391 45.7013 3.19391 44.459C3.19391 41.9199 4.55398 39.5555 6.7426 38.2876L17.801 31.8815L24.8951 44.2099L13.8367 50.6165C10.4487 52.5784 6.10192 51.4095 4.14607 48.0107Z" fill="#FF2359"/>
<path d="M15.3944 44.7819C15.0026 44.1012 14.1347 43.8676 13.4563 44.2608L10.9989 45.6844C10.3216 46.0771 9.45207 45.8429 9.06079 45.1634C8.66896 44.4827 7.80105 44.2491 7.12268 44.6423C6.44432 45.0354 6.21154 45.9063 6.60338 46.587C7.77112 48.6169 10.376 49.3326 12.4177 48.1503L14.8751 46.7266C15.5535 46.3334 15.7863 45.4631 15.3944 44.7819Z" fill="#FF2359"/>
<path d="M70.8915 6.22795L62.9855 10.6421C62.3011 11.0246 62.0544 11.8916 62.4357 12.5783C62.8159 13.2645 63.6794 13.5131 64.3655 13.1299L72.271 8.71583C72.956 8.33325 73.2021 7.46633 72.8207 6.77957C72.44 6.09227 71.576 5.84537 70.8915 6.22795Z" fill="#FF2359"/>
<path d="M70.0625 20.9715L64.5807 19.4976C63.8236 19.2941 63.0455 19.7446 62.8426 20.5043C62.6398 21.2641 63.0893 22.0444 63.8463 22.248L69.3287 23.7219C70.0902 23.9271 70.8644 23.4694 71.0662 22.7152C71.269 21.9554 70.8195 21.1745 70.0625 20.9715Z" fill="#FF2359"/>
<path d="M56.2872 1.05544L54.8168 6.55643C54.6139 7.31607 55.0629 8.09629 55.8199 8.30038C56.5765 8.50336 57.3546 8.05402 57.558 7.29383L59.0278 1.79284C59.2307 1.0332 58.7817 0.25243 58.0247 0.0488951C57.2681 -0.154639 56.49 0.295806 56.2872 1.05544Z" fill="#FF2359"/>
</svg>
